<?xml version="1.0" encoding="UTF-8" standalone="no"?>
<!-- Created with Inkscape (http://www.inkscape.org/) -->

<svg
   width="541.86664mm"
   height="541.86664mm"
   viewBox="0 0 541.86664 541.86664"
   version="1.1"
   id="svg1"
   xml:space="preserve"
   inkscape:version="1.4.2 (ebf0e940, 2025-05-08)"
   sodipodi:docname="meuPia_logo_vector.svg"
   xmlns:inkscape="http://www.inkscape.org/namespaces/inkscape"
   xmlns:sodipodi="http://sodipodi.sourceforge.net/DTD/sodipodi-0.dtd"
   xmlns="http://www.w3.org/2000/svg"
   xmlns:svg="http://www.w3.org/2000/svg"><sodipodi:namedview
     id="namedview1"
     pagecolor="#ffffff"
     bordercolor="#000000"
     borderopacity="0.25"
     inkscape:showpageshadow="2"
     inkscape:pageopacity="0.0"
     inkscape:pagecheckerboard="0"
     inkscape:deskcolor="#d1d1d1"
     inkscape:document-units="mm"
     inkscape:zoom="0.18786877"
     inkscape:cx="1088.5258"
     inkscape:cy="830.36685"
     inkscape:window-width="1408"
     inkscape:window-height="807"
     inkscape:window-x="0"
     inkscape:window-y="33"
     inkscape:window-maximized="0"
     inkscape:current-layer="layer4" /><defs
     id="defs1"><clipPath
       clipPathUnits="userSpaceOnUse"
       id="clipPath21"><ellipse
         style="opacity:1;fill:#ffffff;fill-opacity:1;stroke:#000000;stroke-width:6.61458;stroke-linecap:round;stroke-dasharray:none"
         id="ellipse21"
         cx="263.23859"
         cy="383.70981"
         rx="143.84622"
         ry="80.194275" /></clipPath></defs><g
     inkscape:groupmode="layer"
     id="layer2"
     inkscape:label="meuPia"
     style="display:inline" /><g
     inkscape:groupmode="layer"
     id="layer4"
     inkscape:label="meuPia 1"><g
       id="g21"
       transform="matrix(1.1663666,0,0,1.1663666,-34.36958,-7.6167017)"><ellipse
         style="opacity:1;fill:#265c83;fill-opacity:1;stroke:none;stroke-width:6.27418;stroke-linecap:round;stroke-dasharray:none"
         id="path21"
         cx="260.54312"
         cy="240.12218"
         rx="210.01305"
         ry="212.12556" /><path
         id="path16"
         style="display:inline;fill:#5fa756;fill-opacity:1;stroke:#000000;stroke-width:6.31406;stroke-linecap:round;stroke-dasharray:none"
         d="M 262.89093,402.8766 A 111.98318,91.11882 0 0 0 151.76696,482.72961 H 374.0149 A 111.98318,91.11882 0 0 0 262.89093,402.8766 Z"
         clip-path="url(#clipPath21)"
         transform="translate(-4.2250237,-12.675071)" /><path
         id="path11"
         style="display:inline;fill:#f2bb95;fill-opacity:1;stroke:#000000;stroke-width:6.61458;stroke-linecap:round;stroke-dasharray:none"
         d="m 388.7151,287.1404 a 21.856991,24.285545 0 0 1 -21.85699,24.28555 21.856991,24.285545 0 0 1 -21.85699,-24.28555 21.856991,24.285545 0 0 1 21.85699,-24.28555 21.856991,24.285545 0 0 1 21.85699,24.28555 z" /><path
         style="display:inline;fill:none;fill-opacity:1;stroke:#000000;stroke-width:5.29167;stroke-linecap:round;stroke-dasharray:none"
         d="m 345.97254,315.31165 c 1.87868,-12.42654 11.4006,-32.07651 31.08549,-36.42834"
         id="path12"
         sodipodi:nodetypes="cc" /><path
         id="path13"
         style="display:inline;fill:#f2bb95;fill-opacity:1;stroke:#000000;stroke-width:6.61458;stroke-linecap:round;stroke-dasharray:none"
         d="m 129.34548,286.65469 a 21.856991,24.285545 0 0 0 21.85699,24.28555 21.856991,24.285545 0 0 0 21.85699,-24.28555 21.856991,24.285545 0 0 0 -21.85699,-24.28555 21.856991,24.285545 0 0 0 -21.85699,24.28555 z" /><path
         style="display:inline;fill:none;fill-opacity:1;stroke:#000000;stroke-width:5.29167;stroke-linecap:round;stroke-dasharray:none"
         d="M 172.08804,314.82594 C 170.20936,302.3994 160.68744,282.74943 141.00255,278.3976"
         id="path14"
         sodipodi:nodetypes="cc" /><path
         id="rect10"
         style="display:inline;fill:#f2bb95;fill-opacity:1;stroke:#000000;stroke-width:5.09131;stroke-linecap:round"
         d="m 228.33031,353.09688 h 61.88565 c 0,0 3.87708,24.22866 -0.37893,45.4082 -3.28036,16.32438 -11.39237,17.72316 -29.83532,17.93458 -19.47669,0.22326 -27.73975,-2.79949 -30.98296,-20.30329 -3.81234,-20.57541 -0.68844,-43.03949 -0.68844,-43.03949 z"
         sodipodi:nodetypes="ccsssc" /><path
         id="path2"
         style="display:inline;fill:#f2bb95;fill-opacity:1;stroke:#000000;stroke-width:6.61458;stroke-dasharray:none"
         d="m 325.73468,157.62141 -141.9934,1.74563 2.82567,14.77274 -18.07435,-0.91157 c 0,0 -10.14532,22.28172 -11.0572,82.05339 -0.61104,40.0526 14.0389,75.93649 36.50669,98.1484 22.7604,22.5012 52.96964,27.0375 63.7021,27.00779 18.9822,-0.89629 43.63151,-7.55278 59.18275,-18.35477 28.44854,-20.53628 48.02005,-61.16426 47.31574,-107.33059 -0.91187,-59.77167 -11.05721,-82.05339 -11.05721,-82.05339 l -29.98938,1.51257 z"
         sodipodi:nodetypes="ccccsssssccc" /><circle
         style="display:inline;fill:#ffffff;stroke:#000000;stroke-width:5.29167;stroke-dasharray:none"
         id="path4"
         cx="207.09882"
         cy="279.1665"
         r="37.535076" /><circle
         style="display:inline;fill:#ffffff;stroke:#000000;stroke-width:5.29167;stroke-dasharray:none"
         id="circle4"
         cx="312.40289"
         cy="279.1665"
         r="37.535076" /><path
         style="display:inline;fill:#744531;fill-opacity:1;stroke:#000000;stroke-width:5.29167;stroke-dasharray:none"
         d="m 122.05578,248.40367 c 7.74936,-7.24391 15.83181,-13.69146 13.38459,-32.5886 l 56.4481,-44.80931 69.83268,-15.13042 86.12701,23.27757 31.42469,37.82604 c 2.20717,11.49304 5.82032,22.42368 15.71236,30.84277 -5.93947,0.84055 -12.38671,5.23552 -16.87623,-4.07357 l -2.90968,25.60532 -13.38461,1.74582 v -17.45818 c -7.28626,0.39359 -10.76268,-16.35715 -15.13041,-29.09695 -16.48828,-3.97885 -32.97655,-1.04763 -49.46483,-36.66217 -1.7223,14.76793 3.99728,17.13271 6.40133,25.02339 -15.3244,-3.83448 -30.64879,2.93817 -45.97319,-26.7692 -0.70507,18.04854 7.97084,24.37087 12.80267,35.49828 -33.29743,-1.53871 -55.53851,-16.89784 -64.01332,-49.46482 1.17336,26.33695 -7.98028,43.28572 -23.8595,54.12033 -1.71587,-10.64806 1.63046,-24.33343 -6.98327,-30.84277 -1.55035,22.54607 -3.94442,44.34217 -19.204,54.70228 l 10e-6,13.96654 -14.54848,1.74582 -1.74582,-23.27757 c -6.98327,3.43251 -11.05684,9.94342 -18.0401,5.8194 z"
         id="path5"
         sodipodi:nodetypes="cccccccccccccccccccccccc" /><path
         style="display:inline;fill:none;stroke:#000000;stroke-width:5.29167;stroke-linecap:round;stroke-dasharray:none"
         d="m 249.98321,309.64759 c 0.30754,5.37971 19.54149,4.55604 19.3578,-0.36524"
         id="path6"
         sodipodi:nodetypes="cc" /><path
         style="display:inline;fill:none;stroke:#000000;stroke-width:5.29167;stroke-linecap:round;stroke-dasharray:none"
         d="m 230.26015,329.37063 c 0,0 12.40885,11.51142 31.07363,10.95653 18.66478,-0.55489 25.90408,-9.86081 25.90408,-9.86081"
         id="path7"
         sodipodi:nodetypes="czc" /><path
         style="display:inline;fill:none;stroke:#000000;stroke-width:4.36374;stroke-linecap:round;stroke-dasharray:none"
         d="m 223.85477,228.3955 c -10.88278,-4.32925 -24.04455,-3.35725 -34.93163,6.03558"
         id="path8"
         sodipodi:nodetypes="cc" /><path
         style="display:inline;fill:none;stroke:#000000;stroke-width:4.36374;stroke-linecap:round;stroke-dasharray:none"
         d="m 295.79832,228.72948 c 10.88278,-4.32925 24.04455,-3.35725 34.93163,6.03558"
         id="path9"
         sodipodi:nodetypes="cc" /><circle
         style="display:inline;fill:#5fa756;fill-opacity:1;stroke:#000000;stroke-width:5.29167;stroke-linecap:round;stroke-dasharray:none"
         id="path10"
         cx="259.03024"
         cy="86.592941"
         r="16.51417" /><ellipse
         style="display:inline;fill:#000000;fill-opacity:1;stroke:none;stroke-width:8.9308;stroke-linecap:round;stroke-dasharray:none"
         id="path17"
         cx="214.56853"
         cy="277.42987"
         rx="9.1680565"
         ry="12.344026" /><ellipse
         style="display:inline;fill:#000000;fill-opacity:1;stroke:none;stroke-width:8.9308;stroke-linecap:round;stroke-dasharray:none"
         id="ellipse17"
         cx="305.10373"
         cy="277.17697"
         rx="9.1680565"
         ry="12.344026" /><path
         id="path18"
         style="display:inline;fill:none;stroke:#000000;stroke-width:6.61458;stroke-linecap:round"
         d="m 245.5823,276.64674 c 4.16391,-2.39451 8.19446,-3.57502 13.95867,-3.57502 5.29172,0 9.17645,0.70226 13.1652,2.75294"
         sodipodi:nodetypes="csc" /><path
         id="path15"
         style="display:inline;fill:#5fa756;fill-opacity:1;stroke:#000000;stroke-width:6.61458;stroke-linecap:round;stroke-dasharray:none"
         d="m 235.36659,85.961477 c -10.43862,1.423512 -20.34764,3.525952 -27.43402,6.143522 -19.7717,7.30328 -35.64716,18.616451 -45.07322,30.379541 -28.08178,35.04416 -27.19989,94.7136 -27.19989,94.7136 30.44843,-41.27554 74.43457,-65.86712 124.62031,-67.15715 35.24188,-0.9059 81.13301,15.49205 121.42152,67.15715 0,0 0.88188,-59.66943 -27.19989,-94.7136 C 341.0795,105.7349 314.58122,89.897999 282.3779,85.250181 267.13895,83.98869 250.58764,84.73101 235.36659,85.961477 Z"
         sodipodi:nodetypes="ssscscsss" /><path
         id="path19"
         style="display:inline;fill:#5fa756;fill-opacity:1;stroke:#000000;stroke-width:6.61458;stroke-linecap:round"
         d="m 260.34229,150.10403 c -50.48213,0 -93.23173,23.57942 -112.75952,55.26433 4.56921,4.36877 11.6968,4.71974 20.5667,4.15582 23.52414,-24.21568 57.71567,-41.96122 93.6563,-41.37629 34.26171,0.55761 67.54078,18.29617 90.92365,42.19174 7.52913,-0.13647 13.92853,-1.6728 18.93424,-5.87768 -20.4249,-30.96008 -62.35766,-54.35792 -111.32137,-54.35792 z" /><path
         id="circle20"
         style="fill:#ffffff;fill-opacity:1;stroke:#265c83;stroke-width:6.61458;stroke-linecap:round;stroke-dasharray:none;stroke-opacity:1"
         d="M 258.49745,21.597154 C 234.1328,21.993116 209.91125,26.56489 186.99742,34.956545 158.52661,45.351743 132.2667,61.701463 110.56487,82.923127 83.368257,109.41314 63.096654,143.08682 52.925493,179.64797 c -4.367114,15.63367 -7.004023,31.8746 -7.801074,48.08957 -0.914309,18.2674 0.440547,36.57179 4.121195,54.48918 9.198145,45.06303 33.22536,87.12966 67.675976,117.77627 24.1647,21.57362 53.0839,37.78151 84.21553,46.75425 35.29431,10.2202 73.23682,11.39219 109.06776,3.1471 25.94182,-5.92853 50.84099,-16.82951 72.90201,-31.71383 17.44168,-11.7548 33.14714,-26.08297 46.40234,-42.41653 19.5466,-23.98973 34.02264,-52.10221 41.80262,-82.0229 3.56889,-13.61648 5.80011,-27.58329 6.68951,-41.61865 1.02147,-16.41243 0.22075,-32.87316 -2.48254,-49.07762 C 469.5554,167.1106 454.36185,132.71198 431.74113,104.10891 417.80574,86.405248 400.94585,70.927758 382.25423,58.403693 361.87302,44.741887 339.26323,34.542111 315.45831,28.482005 296.88119,23.722573 277.67059,21.447544 258.49745,21.597154 Z m 3.12435,15.793868 A 201.15404,201.15404 0 0 1 462.77593,238.54515 201.15404,201.15404 0 0 1 261.6218,439.69928 201.15404,201.15404 0 0 1 60.467668,238.54515 201.15404,201.15404 0 0 1 261.6218,37.391022 Z" /></g></g></svg>
